<?xml version="1.0" encoding="UTF-8"?>
<svg width="73px" height="73px" viewBox="0 0 73 73" version="1.1" xmlns="http://www.w3.org/2000/svg" xmlns:xlink="http://www.w3.org/1999/xlink">
    <!-- Generator: Sketch 52 (66869) - http://www.bohemiancoding.com/sketch -->
    <title>desktop/icon/large/symbols/IO_Overview/Acquisition</title>
    <desc>Created with Sketch.</desc>
    <g id="desktop/icon/large/symbols/IO_Overview/Acquisition" stroke="none" stroke-width="1" fill="none" fill-rule="evenodd" stroke-linecap="round" stroke-linejoin="round">
        <g id="Group" transform="translate(7.000000, 6.000000)" stroke="#202020" stroke-width="1.5">
            <g id="Regular">
                <path d="M39.375,20.625 L39.375,3.75 C39.3730574,3.13625037 39.0708591,2.56230634 38.5659316,2.21339293 C38.061004,1.86447953 37.4172785,1.78477431 36.8425,2 L16.2175,12.675 C15.4872641,12.9484278 15.0024709,13.6452558 15,14.425 L15,24.375" id="Shape"></path>
                <path d="M33.75,13.125 L39.375,13.125" id="Shape"></path>
                <path d="M30,20.625 L39.375,20.625" id="Shape"></path>
                <path d="M1.875,31.875 L7.5,31.875" id="Shape"></path>
                <path d="M1.875,39.375 L11.25,39.375" id="Shape"></path>
                <path d="M20.625,10.39 L20.625,1.8775" id="Shape"></path>
                <path d="M20.625,58.125 L20.625,28.125 C20.625,26.0539322 18.9460678,24.375 16.875,24.375 L5.625,24.375 C3.55393219,24.375 1.875,26.0539322 1.875,28.125 L1.875,58.125 L24.375,58.125" id="Shape"></path>
                <path d="M46.875,35.625 L41.7925,35.625 C40.1859453,35.6261221 38.805667,36.7659826 38.5008034,38.3433467 C38.1959398,39.9207108 39.0520666,41.4928105 40.5425,42.0925 L45.7025,44.1575 C47.1929334,44.7571895 48.0490602,46.3292892 47.7441966,47.9066533 C47.439333,49.4840174 46.0590547,50.6238779 44.4525,50.625 L39.375,50.625" id="Shape"></path>
                <path d="M43.125,35.625 L43.125,33.75" id="Shape"></path>
                <path d="M43.125,52.5 L43.125,50.625" id="Shape"></path>
                <circle id="Oval" cx="43.125" cy="43.125" r="15"></circle>
            </g>
        </g>
    </g>
</svg>