<?xml version="1.0" encoding="UTF-8"?>
<svg width="73px" height="73px" viewBox="0 0 73 73" version="1.1" xmlns="http://www.w3.org/2000/svg" xmlns:xlink="http://www.w3.org/1999/xlink">
    <!-- Generator: Sketch 52 (66869) - http://www.bohemiancoding.com/sketch -->
    <title>desktop/icon/large/symbols/IO_Overview/Market</title>
    <desc>Created with Sketch.</desc>
    <g id="desktop/icon/large/symbols/IO_Overview/Market" stroke="none" stroke-width="1" fill="none" fill-rule="evenodd" stroke-linecap="round" stroke-linejoin="round">
        <g id="Group" transform="translate(7.000000, 7.000000)" stroke="#202020" stroke-width="1.5">
            <g id="building-house">
                <polyline id="Shape" points="35.625 43.125 35.625 58.125 20.625 58.125"></polyline>
                <path d="M28.125,50.625 L28.125,58.125" id="Shape"></path>
                <polyline id="Shape" points="20.625 44.625 20.625 58.125 5.625 58.125 5.625 46.875"></polyline>
                <polygon id="Shape" points="18.75 46.875 28.125 35.625 11.25 35.625 1.875 46.875"></polygon>
                <path d="M39.375,46.875 L28.125,35.625" id="Shape"></path>
                <polygon id="Shape" points="29.9175 16.875 43.125 1.875 26.25 1.875 13.0425 16.875"></polygon>
                <path d="M58.125,16.875 L43.125,1.875" id="Shape"></path>
                <path d="M31.875,14.6525 L31.875,28.125" id="Shape"></path>
                <polyline id="Shape" points="54.375 13.125 54.375 46.875 46.875 46.875"></polyline>
                <path d="M16.875,28.125 L16.875,16.875" id="Shape"></path>
                <path d="M39.375,18.75 L39.375,20.625" id="Shape"></path>
                <path d="M46.875,18.75 L46.875,20.625" id="Shape"></path>
                <path d="M39.375,28.125 L39.375,30" id="Shape"></path>
                <path d="M46.875,28.125 L46.875,30" id="Shape"></path>
                <path d="M46.875,37.5 L46.875,39.375" id="Shape"></path>
            </g>
        </g>
    </g>
</svg>